HIERARCHY
ROOT Hips
{
    OFFSET 0.000000 0.000000 0.000000
    CHANNELS 6 Xposition Yposition Zposition Zrotation Xrotation Yrotation
    JOINT Spine
    {
        OFFSET -0.000000 14.517291 0.000000
        CHANNELS 3 Zrotation Xrotation Yrotation
        JOINT Spine1
        {
            OFFSET -0.000000 37.558300 0.000000
            CHANNELS 3 Zrotation Xrotation Yrotation
            JOINT Neck
            {
                OFFSET -0.000000 37.404057 3.400369
                CHANNELS 3 Zrotation Xrotation Yrotation
                JOINT Head
                {
                    OFFSET -0.000000 24.785618 -3.540803
                    CHANNELS 3 Zrotation Xrotation Yrotation
                    End Site
                    {
                        OFFSET -0.000000 35.408028 0.000000
                    }
                }
            }
            JOINT LeftShoulder
            {
                OFFSET 6.992933 33.973492 -0.192664
                CHANNELS 3 Zrotation Xrotation Yrotation
                JOINT LeftArm
                {
                    OFFSET 21.527611 0.000000 0.000000
                    CHANNELS 3 Zrotation Xrotation Yrotation
                    JOINT LeftForeArm
                    {
                        OFFSET 56.353916 0.000000 0.000000
                        CHANNELS 3 Zrotation Xrotation Yrotation
                        JOINT LeftHand
                        {
                            OFFSET 47.774071 0.000000 0.000000
                            CHANNELS 3 Zrotation Xrotation Yrotation
                            End Site
                            {
                                OFFSET 26.556021 0.000000 0.000000
                            }
                        }
                    }
                }
            }
            JOINT RightShoulder
            {
                OFFSET -7.065357 33.973492 -0.192664
                CHANNELS 3 Zrotation Xrotation Yrotation
                JOINT RightArm
                {
                    OFFSET -21.527611 0.000000 0.000000
                    CHANNELS 3 Zrotation Xrotation Yrotation
                    JOINT RightForeArm
                    {
                        OFFSET -56.353916 0.000000 0.000000
                        CHANNELS 3 Zrotation Xrotation Yrotation
                        JOINT RightHand
                        {
                            OFFSET -47.774071 0.000000 0.000000
                            CHANNELS 3 Zrotation Xrotation Yrotation
                            End Site
                            {
                                OFFSET -26.556021 0.000000 0.000000
                            }
                        }
                    }
                }
            }
        }
    }
    JOINT LeftUpLeg
    {
        OFFSET 17.704014 0.000000 0.000000
        CHANNELS 3 Zrotation Xrotation Yrotation
        JOINT LeftLeg
        {
            OFFSET -0.000000 -81.181816 0.000000
            CHANNELS 3 Zrotation Xrotation Yrotation
            JOINT LeftFoot
            {
                OFFSET -0.000000 -62.821102 0.000000
                CHANNELS 3 Zrotation Xrotation Yrotation
                JOINT LeftToeBase
                {
                    OFFSET -0.000000 -11.507608 26.556021
                    CHANNELS 3 Zrotation Xrotation Yrotation
                    End Site
                    {
                        OFFSET -0.000000 0.000000 7.081605
                    }
                }
            }
        }
    }
    JOINT RightUpLeg
    {
        OFFSET -17.704014 0.000000 0.000000
        CHANNELS 3 Zrotation Xrotation Yrotation
        JOINT RightLeg
        {
            OFFSET -0.000000 -81.181816 0.000000
            CHANNELS 3 Zrotation Xrotation Yrotation
            JOINT RightFoot
            {
                OFFSET -0.000000 -62.821102 0.000000
                CHANNELS 3 Zrotation Xrotation Yrotation
                JOINT RightToeBase
                {
                    OFFSET -0.000000 -11.507608 26.556021
                    CHANNELS 3 Zrotation Xrotation Yrotation
                    End Site
                    {
                        OFFSET -0.000000 0.000000 7.081605
                    }
                }
            }
        }
    }
}
MOTION
Frames:    5
Frame Time:    0.008333
-24.053532    154.057831    -33.663445    1.144110    -4.498089    -10.073563    -0.472832    1.031087    4.597878    0.310115    3.009747    1.522822    3.438843    -0.046357    1.989976    3.097001    -1.600586    2.042924    -1.574807    7.609988    -8.000912    -42.584621    13.276934    -37.263905    11.029826    -45.473438    -101.829300    -20.213871    -31.783525    -21.793737    0.838588    12.341693    -1.310534    36.829834    19.252634    63.569790    -15.891328    -24.512980    64.515457    13.654454    -11.764139    27.268038    10.123569    -21.727457    -7.525336    -13.867282    25.886530    -15.799535    -5.342537    -5.459527    37.954849    0.000000    0.000000    0.000000    -6.827390    7.092860    3.470221    3.286899    28.915190    0.350408    0.555311    -31.032295    -4.594958    0.000000    0.000000    0.000000    
-24.030264    154.069778    -33.673347    1.155110    -4.477950    -10.078573    -0.491932    1.034491    4.606864    0.319640    2.978920    1.525575    3.420086    -0.061021    1.981032    3.141803    -1.567350    2.042048    -1.570378    7.614060    -8.005073    -42.570889    13.280859    -37.264545    11.029814    -45.474930    -101.831131    -20.239799    -31.778837    -21.805107    0.830197    12.352073    -1.309872    36.834480    19.263454    63.568119    -15.916074    -24.533915    64.517952    13.654064    -11.771172    27.262611    10.107799    -21.732197    -7.507759    -13.845536    25.850792    -15.803509    -5.369581    -5.453891    37.956459    0.000000    0.000000    0.000000    -6.839554    7.059474    3.487628    3.293445    28.919567    0.345371    0.551779    -31.007856    -4.616214    0.000000    0.000000    0.000000    
-24.007507    154.081467    -33.681236    1.166059    -4.466523    -10.081649    -0.512216    1.046400    4.617034    0.325836    2.952129    1.528794    3.433487    -0.063927    1.967828    3.131407    -1.562506    2.024457    -1.563225    7.607079    -8.019959    -42.558147    13.275305    -37.257645    11.027017    -45.463421    -101.837090    -20.214556    -31.771530    -21.800610    0.825773    12.373016    -1.332143    36.813438    19.282150    63.595787    -15.955865    -24.568789    64.508957    13.669108    -11.781012    27.266714    10.089546    -21.735491    -7.500770    -13.833211    25.826902    -15.788875    -5.387455    -5.440434    37.944389    0.000000    0.000000    0.000000    -6.853194    7.039782    3.502767    3.296557    28.916822    0.303949    0.575179    -30.991730    -4.583666    0.000000    0.000000    0.000000    
-23.986668    154.087692    -33.686413    1.173207    -4.457432    -10.091761    -0.519843    1.059061    4.625770    0.315922    2.930491    1.531999    3.421347    -0.068844    1.953503    3.174756    -1.561838    2.017982    -1.549309    7.600643    -8.021075    -42.545444    13.276527    -37.257565    11.027333    -45.469440    -101.838272    -20.261456    -31.763395    -21.844652    0.826141    12.369658    -1.334792    36.819778    19.292131    63.598396    -15.962837    -24.571011    64.520798    13.660122    -11.780163    27.256098    10.080919    -21.733328    -7.497979    -13.825719    25.799543    -15.809895    -5.403066    -5.441182    37.970932    0.000000    0.000000    0.000000    -6.863369    7.027170    3.514966    3.288750    28.909540    0.306000    0.586508    -30.981367    -4.587743    0.000000    0.000000    0.000000    
-23.963543    154.093033    -33.693089    1.181175    -4.450310    -10.096073    -0.540238    1.075663    4.632459    0.332310    2.906315    1.533767    3.416092    -0.074283    1.948014    3.176852    -1.559962    2.013189    -1.554771    7.590612    -8.028044    -42.527061    13.279408    -37.254425    11.021904    -45.479961    -101.846054    -20.290375    -31.772644    -21.862623    0.808609    12.368461    -1.335511    36.835716    19.291019    63.592728    -15.966806    -24.565384    64.542854    13.666363    -11.767294    27.244118    10.071815    -21.738260    -7.499220    -13.833755    25.785637    -15.792173    -5.405287    -5.435519    37.959381    0.000000    0.000000    0.000000    -6.877403    7.015615    3.522622    3.287640    28.902849    0.311131    0.575692    -30.977873    -4.597600    0.000000    0.000000    0.000000    
